# xmcd
#
# Track frame offsets: 
#        150
#        13392
#        31021
#        51289
#        70067
#        83726
#        99429
#        115309
#        134696
#        152420
#        174424
#        190012
#        200654
#        223110
#        248839
#        261727
#
# Disc length: 3634 seconds
#
# Revision: 0
# Processed by: cddbd v1.5.1PL0 Copyright (c) Steve Scherf et al.
# Submitted via: ExactAudioCopy v0.95a5
#
DISCID=e50e3010
DTITLE=Soulfinger - Sweet Soul Music Live
DYEAR=1995
DGENRE=Soul
TTITLE0=Hard To Handle
TTITLE1=Chain Of Fools
TTITLE2=She's Looking Good
TTITLE3=Bring It On Home To Me
TTITLE4=I Feel Good
TTITLE5=It's A Man's World
TTITLE6=Signed, Sealed, Delivered
TTITLE7=Mustang Sally
TTITLE8=Gimme Some Loving
TTITLE9=Baby I Love You
TTITLE10=Knock On Wood
TTITLE11=Sweet Soul Music
TTITLE12=How Do You Stop
TTITLE13=Imaginary People
TTITLE14=Shake Your Tailfeather
TTITLE15=Soulfinger
EXTD=
EXTT0=
EXTT1=
EXTT2=
EXTT3=
EXTT4=
EXTT5=
EXTT6=
EXTT7=
EXTT8=
EXTT9=
EXTT10=
EXTT11=
EXTT12=
EXTT13=
EXTT14=
EXTT15=
PLAYORDER=
